REM DIRINDEX 1\2\6,1\2\7,1\2\8,1\2\9,1\3\10,1\3\11,1\4\12,1\4\13,1\4\14,1\5\15,1\5\16,1\5\17
REM DIRNAME folder01,folder02,folder03,folder04,folder05,folder06,folder07,folder08,folder09,folder10,folder11,folder12,folder13,folder14,folder15,folder16,folder17
TITLE ""
FILE "1900_3_081 sec14_1333_1349.mp3" MP3
  TRACK 01 AUDIO
    TITLE "0:"
    INDEX 01 00:00:00
  TRACK 02 AUDIO
    TITLE "17:cjc020_8646"
    INDEX 01 00:00:13
  TRACK 03 AUDIO
    TITLE "0:"
    INDEX 01 00:01:15
  TRACK 04 AUDIO
    TITLE "16:cjc020_8647"
    INDEX 01 00:01:21
  TRACK 05 AUDIO
    TITLE "0:"
    INDEX 01 00:02:34
  TRACK 06 AUDIO
    TITLE "17:cjc020_8648"
    INDEX 01 00:03:21
  TRACK 07 AUDIO
    TITLE "0:"
    INDEX 01 00:04:46
  TRACK 08 AUDIO
    TITLE "16:cjc020_8649"
    INDEX 01 00:04:50
  TRACK 09 AUDIO
    TITLE "0:"
    INDEX 01 00:05:61
  TRACK 10 AUDIO
    TITLE "17:cjc020_8650"
    INDEX 01 00:06:47
  TRACK 11 AUDIO
    TITLE "0:"
    INDEX 01 00:07:74
  TRACK 12 AUDIO
    TITLE "16:cjc020_8651"
    INDEX 01 00:08:09
  TRACK 13 AUDIO
    TITLE "0:"
    INDEX 01 00:09:12
  TRACK 14 AUDIO
    TITLE "17:cjc020_8652"
    INDEX 01 00:09:73
  TRACK 15 AUDIO
    TITLE "0:"
    INDEX 01 00:11:27
  TRACK 16 AUDIO
    TITLE "16:cjc020_8653"
    INDEX 01 00:11:35
  TRACK 17 AUDIO
    TITLE "0:"
    INDEX 01 00:12:32
  TRACK 18 AUDIO
    TITLE "17:cjc020_8654"
    INDEX 01 00:13:16
  TRACK 19 AUDIO
    TITLE "0:"
    INDEX 01 00:14:43
  TRACK 20 AUDIO
    TITLE "16:cjc020_8655"
    INDEX 01 00:14:49
  TRACK 21 AUDIO
    TITLE "0:"
    INDEX 01 00:15:52
  TRACK 22 AUDIO
    TITLE "17:cjc020_8656"
    INDEX 01 00:16:34
  TRACK 23 AUDIO
    TITLE "0:"
    INDEX 01 00:18:01
  TRACK 24 AUDIO
    TITLE "16:cjc020_8657"
    INDEX 01 00:18:11
  TRACK 25 AUDIO
    TITLE "0:"
    INDEX 01 00:19:11
  TRACK 26 AUDIO
    TITLE "17:cjc020_8658"
    INDEX 01 00:19:71
  TRACK 27 AUDIO
    TITLE "0:"
    INDEX 01 00:21:27
  TRACK 28 AUDIO
    TITLE "16:cjc020_8659"
    INDEX 01 00:21:33
  TRACK 29 AUDIO
    TITLE "0:"
    INDEX 01 00:22:54
  TRACK 30 AUDIO
    TITLE "17:cjc020_8660"
    INDEX 01 00:23:40
  TRACK 31 AUDIO
    TITLE "0:"
    INDEX 01 00:24:53
  TRACK 32 AUDIO
    TITLE "16:cjc020_8661"
    INDEX 01 00:24:65
  TRACK 33 AUDIO
    TITLE "0:"
    INDEX 01 00:26:15
  TRACK 34 AUDIO
    TITLE "17:cjc020_8662"
    INDEX 01 00:27:00
  TRACK 35 AUDIO
    TITLE "0:"
    INDEX 01 00:28:17
  TRACK 36 AUDIO
    TITLE "16:cjc020_8663"
    INDEX 01 00:28:21
  TRACK 37 AUDIO
    TITLE "0:"
    INDEX 01 00:29:64
  TRACK 38 AUDIO
    TITLE "17:cjc020_8664"
    INDEX 01 00:30:24
  TRACK 39 AUDIO
    TITLE "0:"
    INDEX 01 00:31:22
  TRACK 40 AUDIO
    TITLE "16:cjc020_8665"
    INDEX 01 00:31:29
  TRACK 41 AUDIO
    TITLE "0:"
    INDEX 01 00:32:37
  TRACK 42 AUDIO
    TITLE "17:cjc020_8666"
    INDEX 01 00:33:30
  TRACK 43 AUDIO
    TITLE "0:"
    INDEX 01 00:34:34
  TRACK 44 AUDIO
    TITLE "16:cjc020_8667"
    INDEX 01 00:34:42
  TRACK 45 AUDIO
    TITLE "0:"
    INDEX 01 00:35:51
  TRACK 46 AUDIO
    TITLE "17:cjc020_8668"
    INDEX 01 00:36:36
  TRACK 47 AUDIO
    TITLE "0:"
    INDEX 01 00:39:05
  TRACK 48 AUDIO
    TITLE "16:cjc020_8669"
    INDEX 01 00:39:09
  TRACK 49 AUDIO
    TITLE "0:"
    INDEX 01 00:40:48
  TRACK 50 AUDIO
    TITLE "17:cjc020_8670"
    INDEX 01 00:41:30
  TRACK 51 AUDIO
    TITLE "0:"
    INDEX 01 00:42:35
  TRACK 52 AUDIO
    TITLE "16:cjc020_8671"
    INDEX 01 00:42:43
  TRACK 53 AUDIO
    TITLE "0:"
    INDEX 01 00:43:48
  TRACK 54 AUDIO
    TITLE "17:cjc020_8672"
    INDEX 01 00:44:32
  TRACK 55 AUDIO
    TITLE "0:"
    INDEX 01 00:45:33
  TRACK 56 AUDIO
    TITLE "16:cjc020_8673"
    INDEX 01 00:45:47
  TRACK 57 AUDIO
    TITLE "0:"
    INDEX 01 00:46:51
  TRACK 58 AUDIO
    TITLE "17:cjc020_8674"
    INDEX 01 00:47:38
  TRACK 59 AUDIO
    TITLE "0:"
    INDEX 01 00:48:28
  TRACK 60 AUDIO
    TITLE "16:cjc020_8675"
    INDEX 01 00:48:34
  TRACK 61 AUDIO
    TITLE "0:"
    INDEX 01 00:49:27
  TRACK 62 AUDIO
    TITLE "17:cjc020_8676"
    INDEX 01 00:50:11
  TRACK 63 AUDIO
    TITLE "0:"
    INDEX 01 00:51:28
  TRACK 64 AUDIO
    TITLE "16:cjc020_8677"
    INDEX 01 00:51:30
  TRACK 65 AUDIO
    TITLE "0:"
    INDEX 01 00:52:32
  TRACK 66 AUDIO
    TITLE "17:cjc020_8678"
    INDEX 01 00:53:17
  TRACK 67 AUDIO
    TITLE "0:"
    INDEX 01 00:54:32
  TRACK 68 AUDIO
    TITLE "16:cjc020_8679"
    INDEX 01 00:54:34
  TRACK 69 AUDIO
    TITLE "0:"
    INDEX 01 00:55:71
